<?xml version="1.0" encoding="utf-8"?>
<!-- Generator: Adobe Illustrator 20.1.0, SVG Export Plug-In . SVG Version: 6.00 Build 0)  -->
<svg version="1.1" xmlns="http://www.w3.org/2000/svg" xmlns:xlink="http://www.w3.org/1999/xlink" x="0px" y="0px"
	 viewBox="0 0 945 220" style="enable-background:new 0 0 945 220;" xml:space="preserve">
<style type="text/css">
	.st0{fill:none;stroke:#000000;stroke-width:4.3359;stroke-miterlimit:10;}
	.st1{fill:#F15A24;stroke:#F15A24;stroke-miterlimit:10;}
	.st2{fill:none;stroke:#000000;stroke-width:1.0871;stroke-miterlimit:10;}
	.st3{fill:none;stroke:#000000;stroke-width:3.2614;stroke-linecap:round;stroke-miterlimit:10;}
	.st4{fill:none;}
	.st5{fill:#F15A24;}
	.st6{fill:none;stroke:#000000;stroke-miterlimit:10;}
	.st7{fill:none;stroke:#000000;stroke-width:4;stroke-miterlimit:10;}
</style>
<g id="Layer_2">
	<path d="M598.2,158.3c-5.2,1-11.7,2.9-13.8,8.4c-1.2,3.3,0.2,6.3,0,9.6c-0.4,6.3-7.4,8.6-12.7,9c-18.5,1.1-36.2-7.9-54.7-8.7
		c-8.7-0.4-17.5,0.7-25.8,3.2c-8.4,2.5-15.7,6.7-23.3,11c-8.6,4.8-17.8,5.5-27.5,4.7c-8.3-0.7-21.8-2.5-26.8-10.1
		c-0.6-1-0.9-2.2-0.9-3.4c4.5-0.5,8.6-1.9,11.5-4.1c6.8-5.4,3.7-14.7-5.4-11.7c-4.6,1.5-8.7,5.9-10.4,10.8
		c-9.2-0.4-23.9-3.9-21.4-14.9c0.7-3.1-4.1-4.5-4.8-1.3c-3.1,13.6,11.7,21.1,25.4,21.5c0.1,1.6,0.4,3.1,1.1,4.5
		c4.6,9.3,18.2,12.2,27.5,13.4c11.2,1.4,22.6,1.3,32.8-4.1c6-3.1,11.4-6.9,17.8-9.3c6.3-2.5,13-4.1,19.8-4.7
		c13.1-1.2,25.4,1.7,38,4.7c11.2,2.6,27.4,7.4,38.1,0.8c4.1-2.6,6.9-6.8,6.8-11.7c-0.1-3.5-1.6-6.9,1.7-9.5c2.4-1.9,5.6-2.5,8.5-3
		C602.7,162.5,601.3,157.7,598.2,158.3z M420.4,170.8c5.3-0.9,0.2,3.5-1.7,4.5c-1.5,0.7-3.1,1.1-4.8,1.3
		C415.3,173.7,417.7,171.3,420.4,170.8z"/>
	<path d="M361.2,160.1c-12.7,1.8-25.6,4.1-35.8,12.3c-6.3,5.1-11.3,10.4-19.7,11.8c-7.1,1.1-14.8-0.1-21.5-2.5
		c-11.1-4.1,0.3-13.7,6-16.5c4.1-2.1,9.4-5.3,7.8-10.8c-1.3-4.5-6.5-5.4-10.5-5.4c-3.5,0-7,0.7-10.4,0.6c-1.5,0-3-0.2-4.4-0.6
		c-1.4-3.4-0.9-5.4,1.6-6.1c2.1-1.3,4.8-1.3,7.1-1.1c3.2,0.2,3.2-4.8,0-5c-5.9-0.4-15.2,2.2-16.2,9.2c-1.1,7.3,8.4,8.8,13.6,8.6
		c1.8,0,17.4-2.4,13.3,3.9c-1.7,2.5-7.6,4-10.1,5.9c-4.7,3.6-9.7,10.3-6.9,16.6c2.6,5.8,11.8,7.2,17.3,8.1c7.5,1.2,15.5,1,22.5-2.3
		c8.2-3.8,13.5-11.5,21.7-15.4c8.1-3.8,17.2-5,25.9-6.3C365.6,164.5,364.3,159.7,361.2,160.1z"/>
	<path d="M850.5,49c-10.4-0.9-21,2.9-28.2,10.5c-6.2,6.5-10.8,17.4-5.5,25.7c2.7,4.2,7.6,6.3,11.9,8.4c5.2,2.7,15.9,5.8,15.7,13.1
		c-0.3,8.1-8.9,10.7-15.4,12c-4.8,1-8.8,3.2-9,8.5c-0.1,3.2,4.9,3.3,5,0c0.1-3.8,5.7-3.7,8.3-4.3c2.3-0.6,4.5-1.3,6.6-2.4
		c3.7-1.9,6.9-5,8.4-9c3.8-10-3.7-15.4-11.6-19.5c-4.7-2.4-11.4-4.6-14.9-8.6c-3.9-4.5-2.3-11.2,0.4-15.8
		c5.8-9.7,17.2-14.7,28.2-13.8C853.7,54.3,853.7,49.3,850.5,49z"/>
	<path d="M823.4,166.3c-0.8-3.1-5.7-1.8-4.8,1.3c3.8,14.4-14.8,19.4-25.4,19.7c-6.4,0.2-12.7-0.9-18.7-3.1c-5.6-2-10.8-4.7-16.6-6.1
		c-5.3-1.3-10.8-1.8-16.3-1.6c-5.8,0.2-11.5,1.8-17.3,1.8c-3,0-6.6-0.5-8.7-3.1c-3.3-4.1,0.7-8,4.1-10.1c5.5-3.4,12.2-4.5,18.5-4
		c3.2,0.2,3.2-4.8,0-5c-9.5-0.7-33.8,4.6-28.3,19.2c2,5.4,8,7.8,13.4,8c8.9,0.2,17.5-2.5,26.5-1.5c9.6,1,17.6,5.8,26.7,8.4
		c7.3,2.1,15.1,2.7,22.6,1.7C811.9,190,827.4,181.5,823.4,166.3z"/>
	<path d="M169.2,158.6c-17.3-1.6-26.2,16.1-41.7,19.6c-5.9,1.3-14.5,0.8-19.8-3.3c3.6-1.3,6.8-3.5,8.1-6.9
		c2.1-5.4-2.1-10.4-7.5-10.8c-6.1-0.4-9.9,5.2-9.7,10.9c0,1.2,0.3,2.3,0.6,3.4c-7.5,0.5-19.4-1.8-20.5-9.9
		c-1.2-8.9,13.4-11.1,19.4-12c10.8-1.6,30.7-1,33.8-14.8c0.7-3.1-4.1-4.5-4.8-1.4c-2.2,9.9-18.3,9.8-26,10.8c-7.7,1-16.5,2-22.7,7.2
		c-5.3,4.4-6.4,11.5-1.9,17c4.8,5.9,13.4,8.4,20.7,8.3c1.5,0,3.1-0.1,4.8-0.4c2.3,2.6,5.5,4.5,8.8,5.7c9.3,3.4,19.6,2,28-3.1
		c9.7-5.9,17.9-16.4,30.4-15.2C172.4,163.9,172.4,158.9,169.2,158.6z M109.3,162.4c6.3,2.5-0.7,6.3-5,8
		C103.1,166.7,104.1,160.4,109.3,162.4z"/>
	<path d="M722.4,144.8c-5.1,0.4-10.2,0.4-15.3-0.2c-3.2-0.3-6.2-0.1-7.9-3c-1.4-2.4-0.6-2.6,1.7-3.6c1.5-0.7,2.9-0.8,4.6-0.8
		c3.2,0.1,3.3-4.9,0-5c-6.3-0.2-16.9,5.1-11.6,12.6c2.3,3.2,6.5,3.8,10.1,4.3c6.1,0.8,12.2,1,18.4,0.6
		C725.5,149.6,725.6,144.6,722.4,144.8z"/>
	<path d="M114.7,120.6c-17.9-0.8-27.7,17.6-44.6,19.1c-8.2,0.7-20.4-2-24.8-9.7c-5.3-9.2,4.2-18.2,11.8-21.9
		c13.1-6.4,34.4-3.2,43.3-16.7c3.2-4.8,3.9-11.5,0-16.2c-4.9-6-13-6-20-5.6c-3.2,0.2-3.3,5.2,0,5c5.1-0.3,11.5-1,15.5,3
		c3.8,3.7,2.1,9.5-1.2,12.9c-6.1,6.2-16.9,6.8-25,8.5c-12.7,2.7-30.3,9.5-30.8,25.1c-0.5,15.2,18.9,21.5,31.2,20.6
		c17-1.2,27.3-19.8,44.6-19.1C117.9,125.7,117.9,120.7,114.7,120.6z"/>
</g>
<g id="Layer_1">
	<path class="st0" d="M870.7,84.1L838,83.8c-1.2,0-2.1-1-2.1-2.1l0.3-44.4c0-1.2,1-2.1,2.1-2.1l32.8,0.2c1.2,0,2.1,1,2.1,2.1
		L872.9,82C872.9,83.1,871.9,84.1,870.7,84.1z"/>
	<g>
		<path d="M860.1,42.6c-7.1-0.1-16.9-1.2-16.9,8.7c-0.1,10,10,8.9,17.1,8.9c0.3,0,1.3-0.2,1.3-1.1l0.1-15.3c0-0.6-0.5-1.2-1.2-1.2
			C860.3,42.6,860.2,42.6,860.1,42.6z"/>
	</g>
	<path class="st0" d="M86.8,85.3l-32.8-0.2c-1.2,0-2.1-1-2.1-2.1l0.3-44.4c0-1.2,1-2.1,2.1-2.1l32.8,0.2c1.2,0,2.1,1,2.1,2.1
		L89,83.2C89,84.4,88,85.3,86.8,85.3z"/>
	<path class="st1" d="M458,95.5c-8.8,0-15.9-3.6-21-9.6c-11.7-13.6-8.4-37.7-8.2-38.7l8.5-0.4c0,0-2.9,22.7,6.2,33.3
		c3.5,4,8.3,6.3,14.6,6.3c0,0,0,0,0,0c7.3,0,12.9-2.4,17-7c10-11,7.8-33.3,7.8-33.3l8.8-0.3c0,0,2.3,25.7-10.2,39.6
		C475.7,91.9,467.8,95.5,458,95.5C458,95.5,458,95.5,458,95.5z"/>
	<g>
		<path class="st2" d="M815.7,158.1l-31.7,0.6c-1.1,0-2.1-0.4-2.8-1.2l-9.7-10.3c-0.6-0.7-0.2-1.8,0.8-1.8l30.5-0.9
			c1,0,2,0.4,2.7,1.1l10.9,10.6C817.1,156.9,816.7,158.1,815.7,158.1z"/>
		<line class="st3" x1="735.5" y1="140.6" x2="824.7" y2="138.9"/>
		<line class="st3" x1="728.1" y1="134.4" x2="817.3" y2="132.7"/>
		<line class="st3" x1="721.4" y1="128.1" x2="810.6" y2="126.4"/>
		<line class="st3" x1="715.9" y1="122.6" x2="805.1" y2="120.9"/>
		<g>
			<path class="st4" d="M692.9,124.2C692.8,124.2,692.9,124.1,692.9,124.2C693,123.3,692.1,124.3,692.9,124.2z"/>
			<path d="M692.9,124.2C692.9,124.1,692.8,124.2,692.9,124.2L692.9,124.2z"/>
			<path d="M845.8,160.7l-88.6,2.7c-2.8,0.1-5.6-0.9-7.7-2.8l-49.8-43.4c-0.7-0.6-0.3-1.9,0.7-1.9l104.9-1.5c0.3,0,0.6,0.1,0.8,0.3
				l41.6,41.7C849.5,157.7,848.3,160.6,845.8,160.7z M851,150.2c-13.6-13.8-40.4-39.9-41.9-43.3c-1.7-4,1.9-44.1,1.9-52.7
				s2.9-20.2-6.3-20.3c-16-0.1-98.5,1.7-106.3,2.9c-8,1.2-5.9,11.9-6.1,18.5c-0.3,9.7-0.4,19.5-0.6,29.2c-0.2,8.5-0.9,25.5,0.6,28.5
				c-3.8,9.3,0.3,14.8,7.1,20.8c6.8,6,41.9,34.1,49.2,36.2c6.3,1.8,28,0.6,28,0.6s41.3-1.5,52.9-1.4c11.6,0.1,22.4,0.3,25-3
				C859.7,159,855.1,154.4,851,150.2z M692.9,124.2C692.1,124.3,693,123.3,692.9,124.2L692.9,124.2z M700.5,45.7
				c0-1.3,1.1-2.4,2.4-2.4l97.8-2.2c1.4,0,2.5,1.1,2.5,2.5l-2.1,58.1c0,1.3-1.1,2.3-2.4,2.3l-96.1,2c-1.4,0-2.5-1.1-2.5-2.4
				L700.5,45.7z"/>
		</g>
	</g>
	<g>
		<path class="st2" d="M670,157l-31.7,0.6c-1.1,0-2.1-0.4-2.8-1.2l-9.7-10.3c-0.6-0.7-0.2-1.8,0.8-1.8l30.5-0.9c1,0,2,0.4,2.7,1.1
			l10.9,10.6C671.5,155.8,671,157,670,157z"/>
		<line class="st3" x1="589.9" y1="139.6" x2="679.1" y2="137.9"/>
		<line class="st3" x1="582.4" y1="133.3" x2="671.6" y2="131.6"/>
		<line class="st3" x1="575.7" y1="127" x2="664.9" y2="125.3"/>
		<line class="st3" x1="570.2" y1="121.5" x2="659.4" y2="119.8"/>
		<g>
			<path class="st4" d="M547.2,123.1C547.1,123.1,547.2,123,547.2,123.1C547.3,122.3,546.5,123.2,547.2,123.1z"/>
			<path d="M547.2,123.1C547.2,123,547.1,123.1,547.2,123.1L547.2,123.1z"/>
			<path d="M700.2,159.6l-88.6,2.7c-2.8,0.1-5.6-0.9-7.7-2.8l-49.8-43.4c-0.7-0.6-0.3-1.9,0.7-1.9l104.9-1.5c0.3,0,0.6,0.1,0.8,0.3
				l41.6,41.7C703.8,156.6,702.6,159.6,700.2,159.6z M705.3,149.1c-13.6-13.8-40.4-39.9-41.9-43.3c-1.7-4,1.9-44.1,1.9-52.7
				c0.1-8.6,2.9-20.2-6.3-20.3c-16-0.1-98.5,1.7-106.3,2.9c-8,1.2-5.9,11.9-6.1,18.5c-0.3,9.7-0.4,19.5-0.6,29.2
				c-0.2,8.5-0.9,25.5,0.6,28.5c-3.8,9.3,0.3,14.8,7.1,20.8c6.8,6,41.9,34.1,49.2,36.2c6.3,1.8,28,0.6,28,0.6s41.3-1.5,52.9-1.4
				c11.6,0.1,22.4,0.3,25-3C714.1,157.9,709.5,153.3,705.3,149.1z M547.2,123.1C546.5,123.2,547.3,122.3,547.2,123.1L547.2,123.1z
				 M554.8,44.6c0-1.3,1.1-2.4,2.4-2.4L655,40c1.4,0,2.5,1.1,2.5,2.5l-2.1,58.1c0,1.3-1.1,2.3-2.4,2.3l-96.1,2
				c-1.4,0-2.5-1.1-2.5-2.4L554.8,44.6z"/>
		</g>
	</g>
	<g>
		<path class="st2" d="M524.4,155.9l-31.7,0.6c-1.1,0-2.1-0.4-2.8-1.2l-9.7-10.3c-0.6-0.7-0.2-1.8,0.8-1.8l30.5-0.9
			c1,0,2,0.4,2.7,1.1l10.9,10.6C525.8,154.7,525.3,155.9,524.4,155.9z"/>
		<line class="st3" x1="444.2" y1="138.5" x2="533.4" y2="136.8"/>
		<line class="st3" x1="436.7" y1="132.2" x2="525.9" y2="130.5"/>
		<line class="st3" x1="430" y1="125.9" x2="519.2" y2="124.2"/>
		<line class="st3" x1="424.5" y1="120.4" x2="513.7" y2="118.7"/>
		<g>
			<path class="st4" d="M401.5,122C401.5,122,401.6,121.9,401.5,122C401.6,121.2,400.8,122.2,401.5,122z"/>
			<path d="M401.5,122C401.6,121.9,401.5,122,401.5,122L401.5,122z"/>
			<path d="M554.5,158.6l-88.6,2.7c-2.8,0.1-5.6-0.9-7.7-2.8l-49.8-43.4c-0.7-0.6-0.3-1.9,0.7-1.9l104.9-1.5c0.3,0,0.6,0.1,0.8,0.3
				l41.6,41.7C558.1,155.5,556.9,158.5,554.5,158.6z M559.6,148c-13.6-13.8-40.4-39.9-41.9-43.3c-1.7-4,1.9-44.1,1.9-52.7
				s2.9-20.2-6.3-20.3c-16-0.1-98.5,1.7-106.3,2.9c-8,1.2-5.9,11.9-6.1,18.5c-0.3,9.7-0.4,19.5-0.6,29.2c-0.2,8.5-0.9,25.5,0.6,28.5
				c-3.8,9.3,0.3,14.8,7.1,20.8c6.8,6,41.9,34.1,49.2,36.2c6.3,1.8,28,0.6,28,0.6s41.3-1.5,52.9-1.4c11.6,0.1,22.4,0.3,25-3
				C568.4,156.8,563.8,152.3,559.6,148z M401.5,122C400.8,122.2,401.6,121.2,401.5,122L401.5,122z M409.1,43.5
				c0-1.3,1.1-2.4,2.4-2.4l97.8-2.2c1.4,0,2.5,1.1,2.5,2.5l-2.1,58.1c0,1.3-1.1,2.3-2.4,2.3l-96.1,2c-1.4,0-2.5-1.1-2.5-2.4
				L409.1,43.5z"/>
		</g>
	</g>
	<g>
		<path class="st2" d="M378.7,154.8l-31.7,0.6c-1.1,0-2.1-0.4-2.8-1.2l-9.7-10.3c-0.6-0.7-0.2-1.8,0.8-1.8l30.5-0.9
			c1,0,2,0.4,2.7,1.1l10.9,10.6C380.1,153.7,379.7,154.8,378.7,154.8z"/>
		<line class="st3" x1="298.5" y1="137.4" x2="387.7" y2="135.7"/>
		<line class="st3" x1="291.1" y1="131.1" x2="380.3" y2="129.4"/>
		<line class="st3" x1="284.4" y1="124.9" x2="373.6" y2="123.2"/>
		<line class="st3" x1="278.8" y1="119.3" x2="368" y2="117.6"/>
		<g>
			<path class="st4" d="M255.9,120.9C255.8,121,255.9,120.8,255.9,120.9C256,120.1,255.1,121.1,255.9,120.9z"/>
			<path d="M255.9,120.9C255.9,120.8,255.8,121,255.9,120.9L255.9,120.9z"/>
			<path d="M408.8,157.5l-88.6,2.7c-2.8,0.1-5.6-0.9-7.7-2.8l-49.8-43.4c-0.7-0.6-0.3-1.9,0.7-1.9l104.9-1.5c0.3,0,0.6,0.1,0.8,0.3
				l41.6,41.7C412.4,154.4,411.3,157.4,408.8,157.5z M413.9,147c-13.6-13.8-40.4-39.9-41.9-43.3c-1.7-4,1.9-44.1,1.9-52.7
				s2.9-20.2-6.3-20.3c-16-0.1-98.5,1.7-106.3,2.9c-8,1.2-5.9,11.9-6.1,18.5c-0.3,9.7-0.4,19.5-0.6,29.2c-0.2,8.5-0.9,25.5,0.6,28.5
				c-3.8,9.3,0.3,14.8,7.1,20.8c6.8,6,41.9,34.1,49.2,36.2c6.3,1.8,28,0.6,28,0.6s41.3-1.5,52.9-1.4c11.6,0.1,22.4,0.3,25-3
				C422.7,155.7,418.1,151.2,413.9,147z M255.9,120.9C255.1,121.1,256,120.1,255.9,120.9L255.9,120.9z M263.5,42.5
				c0-1.3,1.1-2.4,2.4-2.4l97.8-2.2c1.4,0,2.5,1.1,2.5,2.5L364,98.5c0,1.3-1.1,2.3-2.4,2.3l-96.1,2c-1.4,0-2.5-1.1-2.5-2.4
				L263.5,42.5z"/>
		</g>
	</g>
	<path class="st2" d="M233,153.8l-31.7,0.6c-1.1,0-2.1-0.4-2.8-1.2l-9.7-10.3c-0.6-0.7-0.2-1.8,0.8-1.8l30.5-0.9c1,0,2,0.4,2.7,1.1
		l10.9,10.6C234.4,152.6,234,153.8,233,153.8z"/>
	<line class="st3" x1="152.8" y1="136.3" x2="242" y2="134.6"/>
	<line class="st3" x1="145.4" y1="130.1" x2="234.6" y2="128.4"/>
	<line class="st3" x1="138.7" y1="123.8" x2="227.9" y2="122.1"/>
	<line class="st3" x1="133.2" y1="118.3" x2="222.4" y2="116.6"/>
	<g>
		<path class="st4" d="M110.2,119.9C110.1,119.9,110.2,119.8,110.2,119.9C110.3,119,109.4,120,110.2,119.9z"/>
		<path d="M110.2,119.9C110.2,119.8,110.1,119.9,110.2,119.9L110.2,119.9z"/>
		<path d="M263.1,156.4l-88.6,2.7c-2.8,0.1-5.6-0.9-7.7-2.8L117.1,113c-0.7-0.6-0.3-1.9,0.7-1.9l104.9-1.5c0.3,0,0.6,0.1,0.8,0.3
			l41.6,41.7C266.8,153.4,265.6,156.3,263.1,156.4z M268.3,145.9c-13.6-13.8-40.4-39.9-41.9-43.3c-1.7-4,1.9-44.1,1.9-52.7
			s2.9-20.2-6.3-20.3c-16-0.1-98.5,1.7-106.3,2.9c-8,1.2-5.9,11.9-6.1,18.5c-0.3,9.7-0.4,19.5-0.6,29.2c-0.2,8.5-0.9,25.5,0.6,28.5
			c-3.8,9.3,0.3,14.8,7.1,20.8c6.8,6,41.9,34.1,49.2,36.2c6.3,1.8,28,0.6,28,0.6s41.3-1.5,52.9-1.4c11.6,0.1,22.4,0.3,25-3
			C277,154.7,272.4,150.1,268.3,145.9z M110.2,119.9C109.4,120,110.3,119,110.2,119.9L110.2,119.9z M117.8,41.4
			c0-1.3,1.1-2.4,2.4-2.4l97.8-2.2c1.4,0,2.5,1.1,2.5,2.5l-2.1,58.1c0,1.3-1.1,2.3-2.4,2.3l-96.1,2c-1.4,0-2.5-1.1-2.5-2.4
			L117.8,41.4z"/>
	</g>
	<path class="st1" d="M162.7,73.2c-7.9,0.1-17.6,1-20.4-8.2c-2.6-8.7,3-14.3,11-16.9c8.4-2.7,18.1-3.3,26.9-3.2
		c4.5,0.1,19.7,0.1,19.7,0.1l-0.7,7.4c0,0-29.9-1.6-43.6,2.4c-2.7,0.8-9.9,3.9-7.7,8c1.6,2.8,8,2.2,10.7,2.1
		c5.4-0.2,10.7-0.4,16.1-0.4c7,0.1,15.7,0.2,21.5,4.8c4.9,3.9,6,11,2.7,16.4c-3.3,5.3-10.2,7-15.9,8.1c-9.9,1.8-20.1,1.2-30-0.6
		c-3.9-0.7-16.5-3.9-16.5-3.9l0.1-7.4c0,0,11.4,3.3,17.1,4.1c4.9,0.6,9.9,0.8,14.9,0.9c6.4,0.2,13.7,0.9,19.8-1.3
		c6.1-2.2,5.3-8.5-0.4-11C180.6,71.2,170.7,73.1,162.7,73.2z"/>
	<path class="st1" d="M575.2,96.9l0.4-48.5c0,0,16.9-0.8,23.3-0.9c8-0.1,15.7,0.8,23.1,3.6c1.3,0.5,2.5,1.1,3.7,1.7
		c4.3,2.5,8.3,5.2,11.3,8.8c3.1,3.6,5.1,7.6,5.4,12.2c0.1,1.8-0.1,9.3-3.1,12.3c-5,6.6-19.4,8.5-26.7,9.7c-3.8,0.6-7.6,0.9-11.4,1.2
		c-3,0.2-16.2,0-19.8,0C579.9,97,575.2,96.9,575.2,96.9z M581.8,90c5.6,0.3,11.2,0.7,16.7,0.4c5.1-0.2,17.5-0.8,25.9-3.1
		c5.3-1.3,9.1-4.4,10.1-7.4c4.7-12-8.2-20.5-13.7-22.7c-10-4.6-38.9-2.9-38.9-2.9S581.6,88.9,581.8,90z"/>
	<polygon class="st1" points="351.6,53.7 321.4,54.4 320.9,96.1 313.2,96.4 313,54.6 278,55 277.6,46.7 351.7,45.6 	"/>
	<path class="st1" d="M750.5,99.4l2.2-26.7l-37.5-17.1c0,0,5.1-7.1,5.3-6.9c1.3,0.8,33.4,15.6,34.8,16.6c0.6,0.4,0.7,0.6,1.3,0.5
		c0.4-0.1,0.9-0.4,1.2-0.6c0.7-0.4,30.2-18.1,30.8-18.6c0.2-0.2,5.7,6,5.7,6l-33.9,20.7c0,0-2.6,23.7-3,25.8
		C753,99.6,750.5,99.4,750.5,99.4z"/>
	<g>
		<path d="M67,79.5c7.1,0.1,16.9,1.2,16.9-8.7c0.1-10-10-8.9-17.1-8.9c-0.3,0-1.3,0.2-1.3,1.1l-0.1,15.3c0,0.6,0.5,1.2,1.2,1.2
			C66.7,79.5,66.9,79.5,67,79.5z"/>
	</g>
	<g>
		<line class="st0" x1="856.5" y1="109.7" x2="856.5" y2="146.4"/>
		<g>
			<g>
				<g>
					<g>
						<g>
							<path class="st5" d="M879,125.6c-5.6,0-10.2,4.6-10.2,10.2c0,5.6,4.6,10.2,10.2,10.2c5.6,0,10.2-4.6,10.2-10.2
								C889.2,130.2,884.6,125.6,879,125.6z M888.1,135.8c0,5-4.1,9.1-9.1,9.1c-5,0-9.1-4.1-9.1-9.1c0-5,4.1-9.1,9.1-9.1
								C884,126.7,888.1,130.8,888.1,135.8z"/>
							<path class="st5" d="M879,146.1c-5.7,0-10.3-4.6-10.3-10.3c0-5.7,4.6-10.3,10.3-10.3c5.7,0,10.3,4.6,10.3,10.3
								C889.3,141.5,884.7,146.1,879,146.1z M879,125.7c-5.6,0-10.1,4.5-10.1,10.1c0,5.6,4.5,10.1,10.1,10.1
								c5.6,0,10.1-4.5,10.1-10.1C889.1,130.2,884.6,125.7,879,125.7z M879,145c-5.1,0-9.2-4.1-9.2-9.2c0-5.1,4.1-9.2,9.2-9.2
								s9.2,4.1,9.2,9.2C888.2,140.9,884.1,145,879,145z M879,126.8c-5,0-9,4-9,9c0,5,4,9,9,9s9-4,9-9
								C888,130.8,884,126.8,879,126.8z"/>
						</g>
					</g>
					<path class="st5" d="M879,131.7c-0.1,0-0.3-0.1-0.4-0.2l-0.3,0.3c0.2,0.2,0.4,0.2,0.6,0.2c0.4,0,0.7-0.2,0.7-0.6
						c0-0.7-0.9-0.4-0.9-0.8c0-0.1,0.2-0.2,0.3-0.2c0.1,0,0.2,0,0.3,0.1l0.3-0.3c-0.2-0.1-0.4-0.2-0.6-0.2c-0.4,0-0.7,0.2-0.7,0.6
						c0,0.6,0.9,0.4,0.9,0.8C879.3,131.6,879.1,131.7,879,131.7z"/>
					<path class="st5" d="M883.6,135.5c0.2,0,0.3,0.1,0.4,0.2l0.3-0.3c-0.2-0.2-0.4-0.3-0.6-0.3c-0.6,0-1,0.4-1,1c0,0.6,0.4,1,1,1
						c0.3,0,0.5-0.1,0.7-0.3l-0.3-0.3c-0.1,0.1-0.2,0.2-0.4,0.2c-0.3,0-0.5-0.3-0.5-0.6C883.1,135.7,883.3,135.5,883.6,135.5z"/>
					<path class="st5" d="M875.4,136.1c0-0.7-0.5-0.9-1.1-0.9h-0.6v1.9h0.7C874.9,137,875.4,136.7,875.4,136.1z M874.3,136.7h-0.2
						v-1.1h0.2c0.3,0,0.6,0.2,0.6,0.5C874.9,136.5,874.6,136.7,874.3,136.7z"/>
				</g>
				<path class="st5" d="M881,134c0,0,0.1-0.3,0.4-0.5c0,0,1.1-0.7,1.4-0.8l0.3,0.4l0.1,0l0.2-0.1l0.2,0.1l0.7,0.9
					c0,0,0.2,0.2,0.5-0.2c0,0,0.1-0.1,0.1-0.4l-2.8-3.7c0,0-0.3-0.1-0.4,0.2l-0.1,0.4l0.6,0.8l-0.1,0.2l-0.1,0l0,0.1l0.2,0.3
					c0,0-0.9,0.6-1.1,0.8l-1.2,1.1l-0.9,0.8v0l0,0l0,0v0l-0.9-0.8l-1.2-1.1c-0.2-0.3-1.1-0.8-1.1-0.8l0.2-0.3l0-0.1l-0.1,0l-0.1-0.2
					l0.6-0.8l-0.1-0.4c-0.1-0.4-0.4-0.2-0.4-0.2l-2.8,3.7c0,0.2,0.1,0.4,0.1,0.4c0.2,0.3,0.5,0.2,0.5,0.2l0.7-0.9l0.2-0.1l0.2,0.1
					l0.1,0l0.3-0.4c0.3,0,1.4,0.8,1.4,0.8c0.3,0.2,0.4,0.5,0.4,0.5c0.2,0.5,0.5,0.7,0.5,0.7l0.7,0.7l-4.6,4.4c0,0-0.5,0.5-0.3,0.7
					c0,0,0.4,0.5,1.1,0l1.7-1.6l3-2.8l3,2.8l1.7,1.6c0.7,0.5,1.1,0,1.1,0c0.2-0.3-0.3-0.7-0.3-0.7l-4.6-4.4l0.7-0.7
					C880.6,134.7,880.9,134.5,881,134z"/>
			</g>
			<ellipse class="st0" cx="879" cy="110.8" rx="22.5" ry="8.9"/>
			<ellipse class="st6" cx="879.3" cy="110.8" rx="18.2" ry="5.3"/>
			<path d="M900.7,140.9c-0.1,0.2-0.1,0.3-0.2,0.5c0.2,0.1,0.3,0.3,0.4,0.5c0.7,1,0.2,2.4-0.8,3c0,0-0.1,0-0.1,0.1
				c-0.2,0.4-0.4,0.7-0.7,1c0.1,0.2,0.1,0.4,0.1,0.5c0,2.7-7.9,6.7-20.4,6.7c-12.2,0-20-3.8-20.3-6.5c-0.6-0.3-1-0.8-1.1-1.4
				c-0.2-1-0.2-2,0.1-3c-0.1-0.3-0.2-0.7-0.2-1.1c0-0.1,0-0.2,0-0.3c-2,1.6-3.2,3.4-3.2,5.6c0,7.2,12.7,11,24.7,11
				c12,0,24.7-3.9,24.7-11C903.7,144.3,902.6,142.5,900.7,140.9z"/>
			<line class="st0" x1="901.5" y1="109.7" x2="901.5" y2="146.4"/>
			<path class="st7" d="M902.6,143l-0.7-6.6c0.1,0,8.6-2.3,8.6-7.8c0-4.9-7.6-5-7.9-5l0-6c0.3,0,3.3,0,6.5,1.2
				c4.8,1.8,7.4,5.3,7.4,9.8C916.5,138.9,903.2,142.9,902.6,143z"/>
		</g>
	</g>
</g>
<g id="Layer_3">
</g>
</svg>
