<svg xmlns="http://www.w3.org/2000/svg" viewBox="0 0 945 220"><defs><style>.cls-1,.cls-3,.cls-4,.cls-5{fill:none;}.cls-1,.cls-3,.cls-4{stroke:#000;}.cls-1,.cls-2,.cls-3,.cls-4{stroke-miterlimit:10;}.cls-1{stroke-width:4.34px;}.cls-2,.cls-6{fill:#f15a24;}.cls-2{stroke:#f15a24;}.cls-3{stroke-width:1.09px;}.cls-4{stroke-linecap:round;stroke-width:3.26px;}</style></defs><title>StudyFinal</title><g id="Layer_2" data-name="Layer 2"><path d="M616.18,158.26c-5.24,1-11.69,2.89-13.78,8.42-1.25,3.3.19,6.31,0,9.65-.4,6.31-7.43,8.65-12.7,9-18.54,1.12-36.24-7.92-54.68-8.72a78.87,78.87,0,0,0-25.78,3.21c-8.42,2.5-15.66,6.75-23.27,11-8.64,4.82-17.79,5.45-27.49,4.67-8.28-.67-21.76-2.47-26.8-10.14a6.39,6.39,0,0,1-.94-3.42c4.51-.5,8.6-1.86,11.48-4.12,6.82-5.35,3.66-14.75-5.42-11.71-4.55,1.52-8.67,5.88-10.4,10.77-9.24-.37-23.9-3.92-21.4-14.92.71-3.13-4.11-4.49-4.82-1.35-3.09,13.63,11.69,21.12,25.36,21.52a11,11,0,0,0,1.13,4.53c4.63,9.26,18.24,12.19,27.46,13.38,11.22,1.44,22.64,1.27,32.85-4.07,6-3.13,11.43-6.87,17.76-9.33a74.28,74.28,0,0,1,19.75-4.74c13.05-1.25,25.43,1.72,38,4.7,11.21,2.65,27.4,7.4,38.06.77a13.65,13.65,0,0,0,6.78-11.73c-.06-3.55-1.62-6.89,1.69-9.48,2.37-1.86,5.57-2.46,8.47-3C620.65,162.48,619.33,157.65,616.18,158.26ZM438.42,170.84c5.29-.89.23,3.54-1.71,4.45a16.26,16.26,0,0,1-4.75,1.32C433.34,173.73,435.72,171.3,438.42,170.84Z"/><path d="M379.15,160.12c-12.66,1.83-25.59,4.06-35.82,12.31-6.33,5.1-11.3,10.41-19.72,11.75a43.71,43.71,0,0,1-21.53-2.54c-11.14-4.13.35-13.66,6-16.53,4.05-2.06,9.45-5.3,7.78-10.82-1.35-4.46-6.45-5.42-10.47-5.43-3.48,0-7,.75-10.43.61a14.91,14.91,0,0,1-4.41-.62q-2.09-5,1.59-6.11c2.05-1.33,4.77-1.28,7.09-1.13,3.21.21,3.22-4.79,0-5-5.94-.4-15.15,2.18-16.18,9.21-1.07,7.32,8.44,8.76,13.59,8.62,1.82,0,17.44-2.39,13.3,3.86-1.69,2.54-7.55,4-10.08,5.92-4.75,3.58-9.74,10.32-6.89,16.57,2.65,5.78,11.8,7.19,17.28,8.1,7.54,1.24,15.49,1,22.53-2.26,8.17-3.79,13.53-11.52,21.73-15.36s17.16-5,25.92-6.3C383.64,164.49,382.31,159.66,379.15,160.12Z"/><path d="M868.54,49a35,35,0,0,0-28.19,10.53c-6.17,6.48-10.82,17.35-5.5,25.73,2.69,4.23,7.61,6.26,11.89,8.44,5.24,2.67,15.9,5.82,15.66,13.07-.27,8.11-8.89,10.66-15.36,12-4.78,1-8.76,3.22-9,8.54-.12,3.22,4.88,3.25,5,0,.14-3.79,5.75-3.72,8.3-4.34a28.94,28.94,0,0,0,6.61-2.41,17.44,17.44,0,0,0,8.41-9c3.77-10-3.71-15.43-11.61-19.45-4.69-2.39-11.39-4.57-14.89-8.63-3.85-4.47-2.32-11.16.42-15.8C846.06,58,857.47,53.06,868.51,54,871.71,54.28,871.73,49.28,868.54,49Z"/><path d="M841.42,166.25c-.82-3.11-5.65-1.83-4.83,1.29,3.78,14.38-14.78,19.44-25.39,19.7a51.5,51.5,0,0,1-18.75-3.11c-5.56-2-10.83-4.7-16.6-6.11a60.89,60.89,0,0,0-16.31-1.6c-5.78.18-11.54,1.8-17.29,1.78-3,0-6.62-.48-8.66-3.07-3.25-4.13.74-8,4.09-10.07,5.53-3.43,12.16-4.46,18.54-4,3.21.24,3.23-4.76,0-5-9.5-.73-33.76,4.64-28.33,19.17,2,5.43,8,7.83,13.4,8,8.92.22,17.48-2.47,26.53-1.54,9.61,1,17.59,5.76,26.71,8.39a55.23,55.23,0,0,0,22.63,1.67C829.95,190,845.42,181.51,841.42,166.25Z"/><path d="M187.21,158.59c-17.3-1.61-26.15,16.09-41.67,19.57-5.89,1.32-14.54.8-19.83-3.32,3.6-1.32,6.76-3.48,8.12-6.91,2.14-5.35-2.09-10.44-7.54-10.76-6.08-.36-9.94,5.25-9.71,10.91a12,12,0,0,0,.65,3.42c-7.52.52-19.39-1.79-20.49-9.94-1.21-8.95,13.37-11.06,19.43-12,10.78-1.63,30.67-1,33.79-14.83.71-3.13-4.1-4.51-4.81-1.36-2.23,9.88-18.29,9.83-26,10.8s-16.46,2-22.67,7.16c-5.33,4.45-6.36,11.5-1.87,17,4.81,5.87,13.38,8.38,20.73,8.27a36.28,36.28,0,0,0,4.79-.39,22.21,22.21,0,0,0,8.76,5.7,32.46,32.46,0,0,0,28-3.12c9.72-5.89,17.91-16.37,30.37-15.21C190.38,163.89,190.4,158.89,187.21,158.59Zm-59.94,3.81c6.3,2.45-.72,6.28-5,8C121.09,166.68,122.14,160.41,127.27,162.41Z"/><path d="M740.35,144.81a87.37,87.37,0,0,1-15.33-.19c-3.19-.34-6.17-.1-7.86-3-1.4-2.36-.62-2.6,1.68-3.59a10.25,10.25,0,0,1,4.57-.76c3.22.09,3.25-4.91,0-5-6.26-.18-16.87,5.06-11.57,12.61,2.26,3.23,6.47,3.83,10.08,4.33a89.48,89.48,0,0,0,18.36.55C743.5,149.59,743.57,144.59,740.35,144.81Z"/><path d="M132.7,120.57c-17.85-.8-27.7,17.6-44.57,19.06-8.15.7-20.36-2-24.75-9.74-5.26-9.21,4.19-18.22,11.76-21.91,13.08-6.38,34.4-3.24,43.28-16.72,3.17-4.82,3.86-11.49,0-16.16-4.89-6-13-6-20-5.57-3.19.21-3.25,5.21,0,5,5.11-.33,11.5-1,15.52,3,3.79,3.72,2.14,9.51-1.18,12.89-6.13,6.24-16.88,6.78-25,8.5C75,101.57,57.46,108.39,56.92,124c-.52,15.2,18.87,21.49,31.18,20.62,17-1.19,27.33-19.83,44.57-19.06C135.88,125.72,135.91,120.72,132.7,120.57Z"/></g><g id="Layer_1" data-name="Layer 1"><rect class="cls-1" x="854.03" y="35.3" width="37" height="48.64" rx="2.12" ry="2.12" transform="translate(0.46 -6.44) rotate(0.42)"/><path d="M878.12,42.59c-7.07-.05-16.86-1.17-16.93,8.67-.07,10,10,8.87,17.11,8.92.32,0,1.33-.19,1.33-1.06l.11-15.33a1.18,1.18,0,0,0-1.16-1.19Z"/><rect class="cls-1" x="70.13" y="36.54" width="37" height="48.64" rx="2.12" ry="2.12" transform="translate(0.45 -0.65) rotate(0.42)"/><path class="cls-2" d="M476,95.5a26.81,26.81,0,0,1-21-9.57c-11.65-13.56-8.37-37.67-8.22-38.68l8.47-.36s-2.87,22.74,6.25,33.32c3.47,4,8.26,6.29,14.58,6.29h0c7.34,0,12.91-2.4,17-7,10-11,7.82-33.26,7.82-33.26l8.78-.32s2.32,25.66-10.22,39.56c-5.78,6.4-13.68,10-23.48,10Z"/><path class="cls-3" d="M833.72,158.08l-31.66.63a3.75,3.75,0,0,1-2.8-1.18l-9.71-10.3a1.09,1.09,0,0,1,.76-1.83l30.54-.88a3.75,3.75,0,0,1,2.73,1.07l10.88,10.63A1.09,1.09,0,0,1,833.72,158.08Z"/><line class="cls-4" x1="753.53" y1="140.65" x2="842.73" y2="138.95"/><line class="cls-4" x1="746.09" y1="134.36" x2="835.29" y2="132.67"/><line class="cls-4" x1="739.38" y1="128.09" x2="828.59" y2="126.39"/><line class="cls-4" x1="733.86" y1="122.56" x2="823.07" y2="120.87"/><path class="cls-5" d="M710.89,124.16c-.08,0,0-.1,0,0C711,123.33,710.14,124.32,710.89,124.16Z"/><path d="M710.89,124.16c0-.1-.08,0,0,0Z"/><path d="M863.83,160.7l-88.6,2.74a11.18,11.18,0,0,1-7.7-2.75l-49.75-43.4a1.07,1.07,0,0,1,.69-1.87L823.4,113.9a1.07,1.07,0,0,1,.77.31l41.56,41.7A2.81,2.81,0,0,1,863.83,160.7ZM869,150.19c-13.57-13.77-40.44-39.87-41.87-43.31-1.67-4,1.86-44.12,1.92-52.68s2.91-20.19-6.33-20.26c-16-.12-98.54,1.74-106.34,2.88-8,1.17-5.92,11.89-6.13,18.49-.31,9.73-.39,19.45-.59,29.18-.18,8.5-.91,25.53.58,28.46-3.82,9.33.33,14.82,7.11,20.79s41.93,34.05,49.22,36.18c6.33,1.85,28,.56,28,.56s41.32-1.51,52.87-1.43,22.43.31,25-3C877.74,159,873.13,154.43,869,150.19Zm-158.06-26c-.75.15.1-.84,0,0Zm7.6-78.47a2.41,2.41,0,0,1,2.36-2.39l97.79-2.19a2.41,2.41,0,0,1,2.46,2.5L819,101.75a2.41,2.41,0,0,1-2.36,2.32l-96.1,2a2.41,2.41,0,0,1-2.46-2.43Z"/><path class="cls-3" d="M688,157l-31.66.63a3.75,3.75,0,0,1-2.8-1.18l-9.71-10.3a1.09,1.09,0,0,1,.76-1.83l30.54-.88a3.75,3.75,0,0,1,2.73,1.07l10.88,10.63A1.09,1.09,0,0,1,688,157Z"/><line class="cls-4" x1="607.86" y1="139.57" x2="697.06" y2="137.87"/><line class="cls-4" x1="600.41" y1="133.29" x2="689.61" y2="131.59"/><line class="cls-4" x1="593.71" y1="127.01" x2="682.91" y2="125.31"/><line class="cls-4" x1="588.19" y1="121.49" x2="677.39" y2="119.79"/><path class="cls-5" d="M565.22,123.09c-.08,0,0-.1,0,0C565.32,122.25,564.47,123.24,565.22,123.09Z"/><path d="M565.22,123.09c0-.1-.08,0,0,0Z"/><path d="M718.16,159.63l-88.6,2.74a11.18,11.18,0,0,1-7.7-2.75l-49.75-43.4a1.07,1.07,0,0,1,.69-1.87l104.94-1.52a1.07,1.07,0,0,1,.77.31l41.56,41.7A2.81,2.81,0,0,1,718.16,159.63Zm5.12-10.52c-13.57-13.77-40.44-39.87-41.87-43.31-1.67-4,1.86-44.12,1.92-52.68s2.91-20.19-6.33-20.26c-16-.12-98.54,1.74-106.34,2.88-8,1.17-5.92,11.89-6.13,18.49-.31,9.73-.39,19.45-.59,29.18-.18,8.5-.91,25.53.58,28.46-3.82,9.33.33,14.82,7.11,20.79s41.93,34.05,49.22,36.18c6.33,1.85,28,.56,28,.56s41.32-1.51,52.87-1.43,22.43.31,25-3C732.06,157.88,727.46,153.35,723.28,149.11Zm-158.06-26c-.75.15.1-.84,0,0Zm7.6-78.47a2.41,2.41,0,0,1,2.36-2.39L673,40a2.41,2.41,0,0,1,2.46,2.5l-2.11,58.14A2.41,2.41,0,0,1,671,103l-96.1,2a2.41,2.41,0,0,1-2.46-2.43Z"/><path class="cls-3" d="M542.37,155.92l-31.66.63a3.75,3.75,0,0,1-2.8-1.18l-9.71-10.3a1.09,1.09,0,0,1,.76-1.83l30.54-.88a3.75,3.75,0,0,1,2.73,1.07l10.88,10.63A1.09,1.09,0,0,1,542.37,155.92Z"/><line class="cls-4" x1="462.18" y1="138.49" x2="551.38" y2="136.8"/><line class="cls-4" x1="454.74" y1="132.21" x2="543.94" y2="130.52"/><line class="cls-4" x1="448.04" y1="125.94" x2="537.24" y2="124.24"/><line class="cls-4" x1="442.52" y1="120.41" x2="531.72" y2="118.71"/><path class="cls-5" d="M419.54,122c-.08,0,0-.1,0,0C419.65,121.18,418.8,122.16,419.54,122Z"/><path d="M419.54,122c0-.1-.08,0,0,0Z"/><path d="M572.48,158.55l-88.6,2.74a11.18,11.18,0,0,1-7.7-2.75l-49.75-43.4a1.07,1.07,0,0,1,.69-1.87l104.94-1.52a1.07,1.07,0,0,1,.77.31l41.56,41.7A2.81,2.81,0,0,1,572.48,158.55ZM577.6,148c-13.57-13.77-40.44-39.87-41.87-43.31-1.67-4,1.86-44.12,1.92-52.68s2.91-20.19-6.33-20.26c-16-.12-98.54,1.74-106.34,2.88-8,1.17-5.92,11.89-6.13,18.49-.31,9.73-.39,19.45-.59,29.18-.18,8.5-.91,25.53.58,28.46-3.82,9.33.33,14.82,7.11,20.79s41.93,34.05,49.22,36.18c6.33,1.85,28,.56,28,.56s41.32-1.51,52.87-1.43,22.43.31,25-3C586.39,156.81,581.78,152.27,577.6,148ZM419.54,122c-.75.15.1-.84,0,0Zm7.6-78.47a2.41,2.41,0,0,1,2.36-2.39L527.29,39a2.41,2.41,0,0,1,2.46,2.5L527.64,99.6a2.41,2.41,0,0,1-2.36,2.32l-96.1,2a2.41,2.41,0,0,1-2.46-2.43Z"/><path class="cls-3" d="M396.7,154.85l-31.66.63a3.75,3.75,0,0,1-2.8-1.18L352.52,144a1.09,1.09,0,0,1,.76-1.83l30.54-.88a3.75,3.75,0,0,1,2.73,1.07L397.43,153A1.09,1.09,0,0,1,396.7,154.85Z"/><line class="cls-4" x1="316.51" y1="137.42" x2="405.71" y2="135.72"/><line class="cls-4" x1="309.07" y1="131.14" x2="398.27" y2="129.44"/><line class="cls-4" x1="302.36" y1="124.86" x2="391.56" y2="123.16"/><line class="cls-4" x1="296.84" y1="119.33" x2="386.04" y2="117.64"/><path class="cls-5" d="M273.87,120.94c-.08,0,0-.1,0,0C274,120.1,273.12,121.09,273.87,120.94Z"/><path d="M273.87,120.94c0-.1-.08,0,0,0Z"/><path d="M426.81,157.48l-88.6,2.74a11.18,11.18,0,0,1-7.7-2.75l-49.75-43.4a1.07,1.07,0,0,1,.69-1.87l104.94-1.52a1.07,1.07,0,0,1,.77.31l41.56,41.7A2.81,2.81,0,0,1,426.81,157.48ZM431.93,147c-13.57-13.77-40.44-39.87-41.87-43.31-1.67-4,1.86-44.12,1.92-52.68s2.91-20.19-6.33-20.26c-16-.12-98.54,1.74-106.34,2.88-8,1.17-5.92,11.89-6.13,18.49-.31,9.73-.39,19.45-.59,29.18-.18,8.5-.91,25.53.58,28.46-3.82,9.33.33,14.82,7.11,20.79s41.93,34.05,49.22,36.18c6.33,1.85,28,.56,28,.56s41.32-1.51,52.87-1.43,22.43.31,25-3C440.72,155.73,436.11,151.2,431.93,147Zm-158.06-26c-.75.15.1-.84,0,0Zm7.6-78.47a2.41,2.41,0,0,1,2.36-2.39l97.79-2.19a2.41,2.41,0,0,1,2.46,2.5L382,98.52a2.41,2.41,0,0,1-2.36,2.32l-96.1,2a2.41,2.41,0,0,1-2.46-2.43Z"/><path class="cls-3" d="M251,153.77l-31.66.63a3.75,3.75,0,0,1-2.8-1.18l-9.71-10.3a1.09,1.09,0,0,1,.76-1.83l30.54-.88a3.75,3.75,0,0,1,2.73,1.07l10.88,10.63A1.09,1.09,0,0,1,251,153.77Z"/><line class="cls-4" x1="170.83" y1="136.34" x2="260.03" y2="134.65"/><line class="cls-4" x1="163.39" y1="130.06" x2="252.59" y2="128.36"/><line class="cls-4" x1="156.69" y1="123.78" x2="245.89" y2="122.09"/><line class="cls-4" x1="151.17" y1="118.26" x2="240.37" y2="116.56"/><path class="cls-5" d="M128.2,119.86c-.08,0,0-.1,0,0C128.3,119,127.45,120,128.2,119.86Z"/><path d="M128.2,119.86c0-.1-.08,0,0,0Z"/><path d="M281.14,156.4l-88.6,2.74a11.18,11.18,0,0,1-7.7-2.75L135.08,113a1.07,1.07,0,0,1,.69-1.87l104.94-1.52a1.07,1.07,0,0,1,.77.31L283,151.61A2.81,2.81,0,0,1,281.14,156.4Zm5.12-10.52c-13.57-13.77-40.44-39.87-41.87-43.31-1.67-4,1.86-44.12,1.92-52.68S249.22,29.7,240,29.63c-16-.12-98.54,1.74-106.34,2.88-8,1.17-5.92,11.89-6.13,18.49-.31,9.73-.39,19.45-.59,29.18-.18,8.5-.91,25.53.58,28.46-3.82,9.33.33,14.82,7.11,20.79s41.93,34.05,49.22,36.18c6.33,1.85,28,.56,28,.56s41.32-1.51,52.87-1.43,22.43.31,25-3C295,154.65,290.43,150.12,286.26,145.88Zm-158.06-26c-.75.15.1-.84,0,0Zm7.6-78.47A2.41,2.41,0,0,1,138.15,39l97.79-2.19a2.41,2.41,0,0,1,2.46,2.5l-2.11,58.14a2.41,2.41,0,0,1-2.36,2.32l-96.1,2a2.41,2.41,0,0,1-2.46-2.43Z"/><path class="cls-2" d="M180.7,73.22c-7.94.09-17.61,1-20.37-8.24-2.59-8.71,3-14.34,11-16.87,8.45-2.69,18.11-3.32,26.89-3.18,4.46.07,19.75.14,19.75.14l-.69,7.42s-29.86-1.59-43.56,2.37c-2.7.78-9.95,3.93-7.66,8,1.6,2.83,8,2.16,10.65,2.08,5.39-.18,10.75-.44,16.15-.37,7,.09,15.73.18,21.51,4.77a12.61,12.61,0,0,1,2.74,16.39c-3.27,5.34-10.19,7-15.93,8.1-9.86,1.8-20.13,1.18-30-.59-3.92-.71-16.45-3.91-16.45-3.91l.05-7.43s11.39,3.31,17.11,4.06c4.93.65,9.92.76,14.89.94,6.38.23,13.67.87,19.78-1.35s5.26-8.48-.36-11C198.61,71.23,188.72,73.13,180.7,73.22Z"/><path class="cls-6" d="M914.87,176.77a14.87,14.87,0,1,0,14.87,14.87A14.89,14.89,0,0,0,914.87,176.77Zm13.25,14.87a13.25,13.25,0,1,1-13.25-13.24A13.26,13.26,0,0,1,928.11,191.64Z"/><path class="cls-6" d="M914.87,206.64a15,15,0,1,1,15-15A15,15,0,0,1,914.87,206.64Zm0-29.75a14.75,14.75,0,1,0,14.75,14.75A14.76,14.76,0,0,0,914.87,176.89Zm0,28.12a13.37,13.37,0,1,1,13.37-13.37A13.39,13.39,0,0,1,914.87,205Zm0-26.49A13.12,13.12,0,1,0,928,191.64,13.13,13.13,0,0,0,914.87,178.52Z"/><path class="cls-6" d="M914.81,185.63a.67.67,0,0,1-.53-.26l-.43.47a1.3,1.3,0,0,0,.92.34c.56,0,1.05-.29,1.05-.9,0-1-1.26-.64-1.26-1.13,0-.2.24-.28.41-.28a.58.58,0,0,1,.44.18l.41-.45a1.23,1.23,0,0,0-.84-.29.94.94,0,0,0-1,.89c0,.91,1.28.64,1.28,1.14C915.23,185.54,915,185.63,914.81,185.63Z"/><path class="cls-6" d="M921.6,191.19a.65.65,0,0,1,.52.22l.46-.38a1.17,1.17,0,0,0-.92-.4,1.44,1.44,0,1,0,0,2.87,1.19,1.19,0,0,0,1-.47l-.5-.37a.65.65,0,0,1-.56.29.89.89,0,0,1,0-1.76Z"/><path class="cls-6" d="M909.54,192.08c0-1-.74-1.37-1.62-1.37H907v2.73h1A1.39,1.39,0,0,0,909.54,192.08Zm-1.6.8h-.31v-1.62H908c.51,0,.94.25.94.79S908.49,192.88,907.93,192.88Z"/><path class="cls-6" d="M917.82,189a1.56,1.56,0,0,1,.63-.72,10.14,10.14,0,0,1,2-1.12l.49.63.09,0,.35-.18.24.1,1,1.29s.34.23.69-.27a.8.8,0,0,0,.19-.51l-4.13-5.45a.45.45,0,0,0-.63.34l-.07.63.86,1.16-.09.32-.13,0,0,.21.31.4a14.83,14.83,0,0,0-1.64,1.24l-1.82,1.55-1.29,1.23h0l-1.29-1.23-1.82-1.55a14.83,14.83,0,0,0-1.64-1.24l.31-.4,0-.21-.13,0-.09-.32.86-1.16-.07-.63a.45.45,0,0,0-.63-.34l-4.13,5.45a.8.8,0,0,0,.19.51c.36.5.69.27.69.27l1-1.29.24-.1.35.18.09,0,.49-.63a10.14,10.14,0,0,1,2,1.12,1.56,1.56,0,0,1,.63.72,2.47,2.47,0,0,0,.71,1l1.06,1-6.73,6.46s-.72.67-.46,1.07c0,0,.55.76,1.56,0l2.49-2.26,4.33-4.11,4.33,4.11,2.49,2.26c1,.78,1.56,0,1.56,0,.27-.39-.46-1.07-.46-1.07L916.05,191l1.06-1A2.47,2.47,0,0,0,917.82,189Z"/><path class="cls-2" d="M593.23,96.93l.36-48.45s16.89-.79,23.27-.87A62.75,62.75,0,0,1,640,51.19a24.64,24.64,0,0,1,3.66,1.73A43,43,0,0,1,655,61.74a21.23,21.23,0,0,1,5.44,12.17c.14,1.79-.06,9.32-3.1,12.32-5,6.64-19.39,8.54-26.69,9.68-3.76.58-7.58.95-11.39,1.19-3,.19-16.23,0-19.83,0C597.91,97,593.23,96.93,593.23,96.93ZM599.82,90a158,158,0,0,0,16.75.43c5.1-.24,17.5-.81,25.93-3.11C647.77,86,651.57,83,652.59,80c4.74-12-8.2-20.54-13.67-22.65-10-4.64-38.87-2.87-38.87-2.87S599.59,88.86,599.82,90Z"/><polygon class="cls-2" points="369.6 53.74 339.36 54.36 338.92 96.09 331.19 96.38 330.99 54.57 296 55.02 295.62 46.67 369.66 45.56 369.6 53.74"/><path class="cls-2" d="M768.49,99.45l2.21-26.69-37.5-17.11s5.13-7.07,5.33-6.95c1.31.8,33.35,15.63,34.78,16.61.57.39.65.56,1.32.47a3.79,3.79,0,0,0,1.2-.55c.71-.42,30.22-18.08,30.78-18.61.16-.15,5.73,6,5.73,6l-33.9,20.68s-2.57,23.66-3,25.82A46.68,46.68,0,0,1,768.49,99.45Z"/><path d="M85,79.46c7.07.05,16.86,1.17,16.93-8.67.07-10-10-8.87-17.11-8.92-.32,0-1.33.19-1.33,1.06l-.11,15.33a1.18,1.18,0,0,0,1.16,1.19Z"/></g></svg>